<svg t="1688557177055" class="icon" viewBox="0 0 1024 1024" version="1.1" xmlns="http://www.w3.org/2000/svg" p-id="3529" width="200" height="200"><path d="M800 800h-640A32 32 0 0 1 128 768V128a32 32 0 0 1 64 0v608h608a32 32 0 0 1 0 64z"  p-id="3530"></path><path d="M672 992a30.08 30.08 0 0 1-22.4-9.6 30.72 30.72 0 0 1 0-44.8L818.56 768l-168.96-169.6a31.36 31.36 0 0 1 44.8-44.8l192 192a30.72 30.72 0 0 1 0 44.8l-192 192a30.08 30.08 0 0 1-22.4 9.6zM864 288h-256a32 32 0 0 1 0-64h256a32 32 0 0 1 0 64z"  p-id="3531"></path><path d="M736 416A32 32 0 0 1 704 384V128a32 32 0 0 1 64 0v256a32 32 0 0 1-32 32z"  p-id="3532"></path></svg>
