<svg t="1691885400619" class="icon" viewBox="0 0 1024 1024" version="1.1" xmlns="http://www.w3.org/2000/svg" p-id="6963" width="200" height="200"><path d="M801.792 141.0048H224.256c-45.7728 0-82.944 37.4784-82.944 83.6608v453.632c0 46.08 37.1712 83.6608 82.944 83.6608h577.536c45.7728 0 82.944-37.4784 82.944-83.6608v-453.632c0-46.08-37.1712-83.6608-82.944-83.6608z m34.2016 537.1904c0 19.0464-15.36 34.5088-34.2016 34.5088H224.256c-18.8416 0-34.2016-15.4624-34.2016-34.5088V224.6656c0-19.0464 15.36-34.5088 34.2016-34.5088h577.536c18.8416 0 34.2016 15.4624 34.2016 34.5088v453.5296zM713.9328 834.048H313.856c-13.5168 0-24.3712 11.0592-24.3712 24.576s10.9568 24.576 24.3712 24.576h400.1792c13.5168 0 24.3712-11.0592 24.3712-24.576s-10.9568-24.576-24.4736-24.576z" p-id="6964"></path><path d="M735.0272 301.568h-52.224v-12.9024c0-11.8784-9.5232-21.504-21.4016-21.504h-84.5824c-11.8784 0-21.4016 9.6256-21.4016 21.504v12.9024H292.352c-13.5168 0-24.3712 11.0592-24.3712 24.576s10.9568 24.576 24.3712 24.576h263.0656v12.9024c0 11.8784 9.5232 21.504 21.4016 21.504h84.5824c11.8784 0 21.4016-9.6256 21.4016-21.504v-12.9024h52.224c13.5168 0 24.3712-11.0592 24.3712-24.576s-10.9568-24.576-24.3712-24.576z m0 223.9488H468.0704v-12.9024c0-11.8784-9.5232-21.504-21.4016-21.504h-84.5824c-11.8784 0-21.4016 9.6256-21.4016 21.504v12.9024h-48.4352c-13.5168 0-24.3712 11.0592-24.3712 24.576s10.9568 24.576 24.3712 24.576h48.4352v12.9024c0 11.8784 9.5232 21.504 21.4016 21.504h84.5824c11.8784 0 21.4016-9.6256 21.4016-21.504v-12.9024h266.9568c13.5168 0 24.3712-11.0592 24.3712-24.576s-10.9568-24.576-24.3712-24.576z" p-id="6965"></path></svg>