<svg t="1689751368178" class="icon" viewBox="0 0 1024 1024" version="1.1" xmlns="http://www.w3.org/2000/svg" p-id="4789" width="200" height="200"><path d="M448.32 471.28H256.96c-30.88 0-56-25.12-56-56V256c0-30.88 25.12-56 56-56h159.28c30.88 0 56 25.12 56 56v191.28c0.08 13.28-10.72 24-23.92 24zM256.96 248c-4.4 0-8 3.6-8 8v159.28c0 4.4 3.6 8 8 8h167.28V256c0-4.4-3.6-8-8-8H256.96zM767.04 471.28H575.68c-13.28 0-24-10.72-24-24V256c0-30.88 25.12-56 56-56h159.28c30.88 0 56 25.12 56 56v159.28c0.08 30.88-25.04 56-55.92 56z m-167.36-48h167.28c4.4 0 8-3.6 8-8V256c0-4.4-3.6-8-8-8H607.68c-4.4 0-8 3.6-8 8v167.28zM416.32 824H256.96c-30.88 0-56-25.12-56-56V608.72c0-30.88 25.12-56 56-56h191.28c13.28 0 24 10.72 24 24V768c0.08 30.88-25.04 56-55.92 56zM256.96 600.72c-4.4 0-8 3.6-8 8V768c0 4.4 3.6 8 8 8h159.28c4.4 0 8-3.6 8-8V600.72H256.96zM767.04 824H607.68c-30.88 0-56-25.12-56-56V576.72c0-13.28 10.72-24 24-24h191.28c30.88 0 56 25.12 56 56V768c0.08 30.88-25.04 56-55.92 56zM599.68 600.72V768c0 4.4 3.6 8 8 8h159.28c4.4 0 8-3.6 8-8V608.72c0-4.4-3.6-8-8-8H599.68z" p-id="4790"></path></svg>