<svg t="1688556831643" class="icon" viewBox="0 0 1024 1024" version="1.1" xmlns="http://www.w3.org/2000/svg" p-id="2431" width="200" height="200"><path d="M932.806367 0.00077H91.193633A90.818863 90.818863 0 0 0 0.00077 91.194633v841.612734A90.818863 90.818863 0 0 0 91.193633 1023.99923h841.612734A90.818863 90.818863 0 0 0 1023.99923 932.806367V91.380633A90.818863 90.818863 0 0 0 932.806367 0.00177z m-76.085885 697.832951h-70.864894a93.24286 93.24286 0 0 1-182.569725 0H157.208534a25.361962 25.361962 0 1 1 0-50.723924h446.075329a93.24286 93.24286 0 0 1 182.569725 0h71.051893a25.361962 25.361962 0 1 1 0 50.723924z m2.609996-325.97851H458.94508a93.24286 93.24286 0 0 1-182.570726 0H154.598537a23.869964 23.869964 0 0 1-25.361961-25.361962 23.123965 23.123965 0 0 1 25.361961-20.32697h121.589818a87.275869 87.275869 0 0 1 86.15587-71.050893 93.24286 93.24286 0 0 1 91.191863 71.050893h400.759397a34.313948 34.313948 0 0 1 30.397955 20.32697 23.869964 23.869964 0 0 1-25.362962 25.361962z" p-id="2432"></path></svg>
