<svg t="1691826545078" class="icon" viewBox="0 0 1024 1024" version="1.1" xmlns="http://www.w3.org/2000/svg" p-id="8113" width="200" height="200"><path d="M522.666667 832a32 32 0 0 1 0 64h-213.333334a32 32 0 0 1 0-64h213.333334z m192 0a32 32 0 0 1 0 64h-64a32 32 0 0 1 0-64h64z m-362.666667-128a32 32 0 0 1 0 64h-149.333333a32 32 0 0 1 0-64h149.333333z m469.333333 0a32 32 0 0 1 0 64h-341.333333a32 32 0 0 1 0-64h341.333333zM504.576 117.333333c170.858667 0 309.333333 138.496 309.333333 309.333334 0 53.12-13.44 104.213333-38.378666 149.354666L906.666667 576a32 32 0 0 1 0 64h-256a32 32 0 0 1 0-64h48.533333l3.818667-5.013333A244.053333 244.053333 0 0 0 749.909333 426.666667c0-125.077333-93.589333-228.266667-214.250666-243.413334l-1.898667-0.234666 1.152 9.173333c0.746667 6.997333 1.237333 14.058667 1.493333 21.141333l0.170667 10.666667c0 149.333333-109.610667 273.088-252.949333 295.168l-5.973334 0.832 2.026667 4.842667a244.906667 244.906667 0 0 0 26.026667 45.482666l4.245333 5.674667H522.666667a32 32 0 0 1 0 64h-405.333334a32 32 0 0 1 0-64h116.309334a307.541333 307.541333 0 0 1-30.122667-77.994667 32 32 0 0 1 28.586667-39.253333l2.794666-0.106667 3.008 0.021334c129.621333 0 234.666667-105.066667 234.666667-234.666667 0-22.442667-3.136-44.458667-9.258667-65.557333a32 32 0 0 1 26.965334-40.704l2.816-0.213334 4.565333-0.106666 6.912-0.085334z" p-id="8114"></path></svg>