<svg t="1691847077896" class="icon" viewBox="0 0 1024 1024" version="1.1" xmlns="http://www.w3.org/2000/svg" p-id="5068" width="200" height="200"><path d="M492.35968 530.816c-133.12512 0-241.42336-108.30336-241.42336-241.42848S359.23456 47.95904 492.35968 47.95904c133.12 0 241.41824 108.30336 241.41824 241.42848-0.14848 132.96128-108.45696 241.27488-241.42848 241.42848h0.01024z m0-422.1696c-99.65568 0-180.736 81.08032-180.736 180.74112 0 99.65568 81.08032 180.736 180.736 180.736 99.6608 0 180.74112-81.08032 180.74112-180.736-0.08704-99.57376-81.16224-180.65408-180.74112-180.74112z" fill="" p-id="5069"></path><path d="M93.16352 961.46944a29.9776 29.9776 0 0 1-21.17632-9.3184 29.8496 29.8496 0 0 1-8.17152-23.39328c33.7664-374.17984 294.8608-443.9808 405.55008-456.6272a29.82912 29.82912 0 0 1 32.86016 26.5728c0.1536 1.41824 0.2048 2.87232 0.14848 4.30592a29.96224 29.96224 0 0 1-27.12064 28.8512c-95.4112 9.4464-320.50688 67.46624-350.69952 401.6128-1.1264 15.76448-14.2848 28.02176-29.952 28.02176a27.06432 27.06432 0 0 1-1.43872-0.0256zM489.14432 686.45376c-20.98688 0-30.34112-9.35424-30.34112-30.34624 0-20.98688 9.35424-30.34112 30.34112-30.34112h357.35552c20.992 0 30.34624 9.35424 30.34624 30.34112 0 20.992-9.35424 30.34624-30.34624 30.34624H489.14432zM446.86336 825.27744c-20.98688 0-30.34112-9.35424-30.34112-30.34112 0-20.992 9.35936-30.34624 30.34112-30.34624h441.76384c20.992 0 30.34624 9.35424 30.34624 30.34624 0 20.98688-9.35424 30.34112-30.34624 30.34112H446.86336zM404.736 964.096c-20.98688 0-30.34624-9.35424-30.34624-30.34624 0-20.98688 9.35936-30.34112 30.34624-30.34112h526.3104c20.992 0 30.35136 9.35424 30.35136 30.34112 0 20.992-9.35936 30.34624-30.35136 30.34624H404.736z" fill="" p-id="5070"></path></svg>