<svg t="1685607799992" class="icon" viewBox="0 0 1024 1024" version="1.1" xmlns="http://www.w3.org/2000/svg" p-id="3191" width="200" height="200"><path d="M682.666667 298.666667a170.666667 170.666667 0 1 1-341.333334 0 170.666667 170.666667 0 0 1 341.333334 0z" fill="#000000" p-id="3192"></path><path d="M512 170.666667a128 128 0 1 0 0 256 128 128 0 0 0 0-256z m-213.333333 128c0-117.824 95.509333-213.333333 213.333333-213.333334s213.333333 95.509333 213.333333 213.333334-95.509333 213.333333-213.333333 213.333333-213.333333-95.509333-213.333333-213.333333z" fill="#000000" p-id="3193"></path><path d="M149.333333 725.333333s145.92-128 362.666667-128 362.666667 128 362.666667 128v170.666667H149.333333v-170.666667z" fill="#000000" p-id="3194"></path><path d="M192 746.026667V853.333333h640v-107.306666a436.522667 436.522667 0 0 0-8.064-5.781334 550.08 550.08 0 0 0-68.501333-40.810666C696.021333 669.525333 611.968 640 512 640s-184.021333 29.525333-243.413333 59.434667A549.696 549.696 0 0 0 192 746.048zM874.666667 725.333333l28.138666-32.085333A42.666667 42.666667 0 0 1 917.333333 725.333333v170.666667a42.666667 42.666667 0 0 1-42.666666 42.666667H149.333333a42.666667 42.666667 0 0 1-42.666666-42.666667v-170.666667a42.666667 42.666667 0 0 1 14.528-32.085333L149.333333 725.333333a5399.253333 5399.253333 0 0 1-28.117333-32.106666h0.042667l0.064-0.064 0.170666-0.170667 0.512-0.426667 1.664-1.408a467.904 467.904 0 0 1 27.306667-20.736 635.157333 635.157333 0 0 1 79.232-47.189333C297.941333 589.141333 395.221333 554.666667 512 554.666667c116.8 0 214.058667 34.474667 281.813333 68.565333 33.92 17.066667 60.714667 34.197333 79.210667 47.210667a466.261333 466.261333 0 0 1 27.306667 20.714666l1.664 1.408 0.512 0.426667 0.170666 0.170667 0.064 0.042666 0.042667 0.042667L874.666667 725.333333z" fill="#000000" p-id="3195"></path></svg>
