<svg xmlns="http://www.w3.org/2000/svg" xmlns:xlink="http://www.w3.org/1999/xlink" fill="none" version="1.1" width="100" height="100" viewBox="0 0 100 100"><defs><clipPath id="master_svg0_16_43"><rect x="0" y="0" width="100" height="100" rx="0"/></clipPath><filter id="master_svg1_16_55" filterUnits="objectBoundingBox" color-interpolation-filters="sRGB" x="-20" y="-16" width="170.847900390625" height="150.40811920166016"><feFlood flood-opacity="0" result="BackgroundImageFix"/><feColorMatrix in="SourceAlpha" type="matrix" values="0 0 0 0 0 0 0 0 0 0 0 0 0 0 0 0 0 0 127 0"/><feOffset dy="4" dx="0"/><feGaussianBlur stdDeviation="5"/><feColorMatrix type="matrix" values="0 0 0 0 0 0 0 0 0 0 0 0 0 0 0 0 0 0 0.3019607961177826 0"/><feBlend mode="normal" in2="BackgroundImageFix" result="effect1_dropShadow"/><feBlend mode="normal" in="SourceGraphic" in2="effect1_dropShadow" result="shape"/></filter></defs><g clip-path="url(#master_svg0_16_43)"><g transform="matrix(0.18017573654651642,0.9836344122886658,-0.9836344122886658,0.18017573654651642,48.88610216738698,-116.90452319263613)" filter="url(#master_svg1_16_55)"><path d="M205.95173754882813,38.03388637695312Q206.1427375488281,38.313986376953125,206.31473754882813,38.60628637695312Q206.48773754882814,38.89868637695312,206.63973754882812,39.20208637695312Q206.7917375488281,39.50548637695313,206.92273754882814,39.81848637695313Q207.0537375488281,40.13148637695312,207.16273754882812,40.452686376953125Q207.2727375488281,40.773786376953126,207.35973754882812,41.101686376953126Q207.44773754882812,41.42948637695312,207.5127375488281,41.762586376953124Q207.5777375488281,42.09558637695312,207.61973754882814,42.43228637695313Q207.66273754882812,42.76888637695312,207.68173754882812,43.107686376953126Q207.70173754882813,43.44648637695313,207.69773754882812,43.785786376953126Q207.69373754882812,44.12508637695312,207.66773754882814,44.463386376953125Q207.64073754882813,44.80168637695313,207.59173754882812,45.13738637695313Q207.54273754882814,45.47308637695312,207.4697375488281,45.80468637695313Q207.3977375488281,46.13628637695312,207.3037375488281,46.46218637695313Q207.20973754882812,46.78808637695313,207.09273754882813,47.10688637695313Q206.9767375488281,47.425686376953124,206.8397375488281,47.73588637695312Q206.70173754882813,48.04608637695313,206.54373754882812,48.34618637695313Q206.38473754882813,48.64628637695313,206.20673754882813,48.93498637695312Q206.02873754882813,49.22378637695313,205.83073754882813,49.49968637695312Q205.63373754882812,49.77568637695312,205.41773754882814,50.03758637695313Q205.20173754882813,50.29958637695313,204.96873754882813,50.54628637695312Q204.73673754882813,50.792986376953124,204.48673754882813,51.02338637695313Q204.23773754882814,51.25378637695313,203.97373754882813,51.46668637695312Q203.70973754882812,51.679586376953125,203.43173754882812,51.87418637695312Q203.15373754882813,52.068686376953124,202.86273754882814,52.24398637695313Q202.57273754882812,52.41918637695312,202.27073754882812,52.57438637695313Q201.96873754882813,52.72948637695312,201.65673754882812,52.86388637695312Q201.34573754882814,52.99818637695313,201.02573754882812,53.111086376953125Q200.70573754882813,53.22398637695312,200.37873754882813,53.31498637695313Q200.05173754882813,53.40588637695312,199.7197375488281,53.474486376953124Q199.38673754882814,53.54308637695313,199.05073754882812,53.58898637695313Q198.7147375488281,53.63488637695312,198.3757375488281,53.65788637695313Q198.03773754882812,53.680886376953126,197.69873754882812,53.680886376953126L122.29903754882812,53.680886376953126Q121.95973754882813,53.680886376953126,121.62123754882813,53.65788637695313Q121.28263754882812,53.63488637695312,120.94643754882813,53.58898637695313Q120.61023754882812,53.54308637695313,120.27793754882812,53.474486376953124Q119.94553754882813,53.40588637695312,119.61863754882813,53.31498637695313Q119.29173754882812,53.22398637695312,118.97173754882812,53.111086376953125Q118.65173754882812,52.99818637695313,118.34013754882812,52.86388637695312Q118.02853754882813,52.72948637695312,117.72683754882813,52.57438637695313Q117.42503754882813,52.41918637695312,117.13443754882812,52.24398637695313Q116.84383754882813,52.068686376953124,116.56583754882813,51.87418637695312Q116.28783754882812,51.679586376953125,116.02363754882812,51.46668637695312Q115.75943754882812,51.25378637695313,115.51023754882813,51.02338637695313Q115.26113754882812,50.792986376953124,115.02813754882813,50.54628637695312Q114.79523754882813,50.29958637695313,114.57953754882813,50.03758637695313Q114.36383754882813,49.77568637695312,114.16633754882812,49.49968637695312Q113.96893754882812,49.22378637695313,113.79063754882813,48.93498637695312Q113.61233754882812,48.64628637695313,113.45403754882813,48.34618637695313Q113.29573754882813,48.04608637695313,113.15813754882812,47.73588637695312Q113.02053754882812,47.425686376953124,112.90423754882812,47.10688637695313Q112.78803754882813,46.78808637695313,112.69363754882812,46.46218637695313Q112.59923754882813,46.13628637695312,112.52723754882813,45.80468637695313Q112.45513754882813,45.47308637695312,112.40573754882813,45.13738637695313Q112.35623754882812,44.80168637695313,112.32973754882812,44.463386376953125Q112.30313754882812,44.12508637695312,112.29963754882813,43.785786376953126Q112.29603754882812,43.44648637695313,112.31553754882813,43.107686376953126Q112.33493754882812,42.76888637695312,112.37733754882812,42.43228637695313Q112.41973754882812,42.09558637695312,112.48483754882812,41.762586376953124Q112.54993754882813,41.42948637695312,112.63743754882813,41.101686376953126Q112.72493754882812,40.773786376953126,112.83443754882812,40.452686376953125Q112.94403754882812,40.13148637695312,113.07503754882812,39.81848637695313Q113.20613754882812,39.50548637695313,113.35813754882813,39.20208637695312Q113.51003754882812,38.89868637695312,113.68223754882813,38.60628637695312Q113.85443754882812,38.313986376953125,114.04613754882813,38.03388637695312L151.74573754882812,-17.063613623046876Q151.91703754882812,-17.314013623046876,152.1033375488281,-17.553613623046875Q152.28953754882812,-17.793213623046874,152.48993754882812,-18.021013623046876Q152.69033754882813,-18.248913623046874,152.90423754882812,-18.464213623046874Q153.1180375488281,-18.679413623046877,153.34453754882813,-18.881413623046875Q153.57103754882812,-19.083313623046877,153.80943754882813,-19.271103623046876Q154.04773754882814,-19.458913623046875,154.29703754882811,-19.631923623046873Q154.54633754882812,-19.804943623046874,154.80563754882812,-19.962523623046877Q155.06493754882814,-20.120103623046873,155.33333754882813,-20.261663623046875Q155.6017375488281,-20.403233623046873,155.8782375488281,-20.528263623046875Q156.1547375488281,-20.653303623046874,156.43833754882812,-20.761333623046873Q156.72183754882812,-20.869373623046876,157.01143754882813,-20.960023623046872Q157.30103754882813,-21.050663623046873,157.5956375488281,-21.123583623046876Q157.89013754882814,-21.196503623046876,158.18863754882813,-21.251433623046875Q158.48703754882814,-21.306363623046874,158.78823754882814,-21.343093623046876Q159.08943754882813,-21.379823623046875,159.39233754882812,-21.398223623046874Q159.69523754882812,-21.416623623046874,159.99873754882813,-21.416623623046874Q160.3021375488281,-21.416623623046874,160.60503754882814,-21.398223623046874Q160.90793754882813,-21.379823623046875,161.20913754882812,-21.343093623046876Q161.51033754882812,-21.306363623046874,161.8087375488281,-21.251433623046875Q162.10723754882812,-21.196503623046876,162.40173754882812,-21.123583623046876Q162.69633754882813,-21.050663623046873,162.98593754882813,-20.960023623046872Q163.27553754882814,-20.869373623046876,163.55903754882814,-20.761333623046873Q163.84263754882812,-20.653303623046874,164.11913754882812,-20.528263623046875Q164.39563754882812,-20.403233623046873,164.6640375488281,-20.261663623046875Q164.93243754882812,-20.120103623046873,165.19173754882814,-19.962523623046877Q165.45103754882814,-19.804943623046874,165.70033754882814,-19.631923623046873Q165.94963754882812,-19.458913623046875,166.18793754882813,-19.271103623046876Q166.42633754882814,-19.083313623046877,166.65283754882813,-18.881413623046875Q166.87933754882812,-18.679413623046877,167.0931375488281,-18.464213623046874Q167.30703754882813,-18.248913623046874,167.50743754882814,-18.021013623046876Q167.70783754882814,-17.793213623046874,167.89403754882812,-17.553613623046875Q168.08033754882814,-17.314013623046876,168.2516375488281,-17.063613623046876L205.95173754882813,38.03388637695312Z" fill="#165DFF" fill-opacity="0.699999988079071"/></g><g transform="matrix(0.8829477429389954,0.46947169303894043,-0.46947169303894043,0.8829477429389954,10.909602754194566,-19.756299394313828)"><rect x="45.073883056640625" y="11.9998779296875" width="11.819531440734863" height="41.69346237182617" rx="5.909765720367432" fill="#FFFFFF" fill-opacity="1"/></g><g transform="matrix(-0.8660257458686829,0.4999997615814209,0.4999997615814209,0.8660257458686829,92.34902484911527,-24.74483209727987)"><rect x="52.03523254394531" y="9.5001220703125" width="13.319743156433105" height="60.68842697143555" rx="6.659871578216553" fill="#FFFFFF" fill-opacity="1"/></g><g><path d="M46.6666259765625 45.5C46.6666259765625 43.01471862576143 48.68134460232393 41 51.1666259765625 41L64.1666259765625 41C64.1666259765625 41 64.1666259765625 41 64.1666259765625 41L64.1666259765625 50C64.1666259765625 50 64.1666259765625 50 64.1666259765625 50L51.1666259765625 50C48.68134460232393 50 46.6666259765625 47.98528137423857 46.6666259765625 45.5Z" fill="#FFFFFF" fill-opacity="1"/></g><g><rect x="27.333358764648438" y="59.6666259765625" width="49.5" height="6.6666669845581055" rx="3.3333334922790527" fill="#FFFFFF" fill-opacity="1"/></g></g></svg>