<svg xmlns="http://www.w3.org/2000/svg" xmlns:xlink="http://www.w3.org/1999/xlink" fill="none" version="1.1" width="160" height="160" viewBox="0 0 160 160"><defs><clipPath id="master_svg0_28_172"><rect x="0" y="0" width="160" height="160" rx="66"/></clipPath><filter id="master_svg1_28_183" filterUnits="objectBoundingBox" color-interpolation-filters="sRGB" x="-31" y="-28" width="220" height="220"><feFlood flood-opacity="0" result="BackgroundImageFix"/><feColorMatrix in="SourceAlpha" type="matrix" values="0 0 0 0 0 0 0 0 0 0 0 0 0 0 0 0 0 0 127 0"/><feMorphology radius="-4" operator="dilate" in="SourceAlpha" result="effect1_dropShadow"/><feOffset dy="2" dx="-1"/><feGaussianBlur stdDeviation="8.5"/><feColorMatrix type="matrix" values="0 0 0 0 0 0 0 0 0 0 0 0 0 0 0 0 0 0 0.3019607961177826 0"/><feBlend mode="normal" in2="BackgroundImageFix" result="effect1_dropShadow"/><feBlend mode="normal" in="SourceGraphic" in2="effect1_dropShadow" result="shape"/></filter></defs><g clip-path="url(#master_svg0_28_172)"><rect x="0" y="0" width="160" height="160" rx="66" fill="#FFFFFF" fill-opacity="1"/><g transform="matrix(-0.9135463237762451,-0.4067367911338806,0.4067367911338806,-0.9135463237762451,214.4822755307723,294.0070799229816)"><path d="M211.18274038085937,187.92557919921876Q211.3743403808594,188.35177919921875,211.53904038085938,188.78917919921875Q211.70374038085936,189.22647919921874,211.8408403808594,189.67317919921874Q211.97804038085937,190.11997919921873,212.08714038085938,190.57437919921875Q212.1961403808594,191.02877919921875,212.2767403808594,191.48907919921874Q212.35734038085937,191.94947919921873,212.40914038085936,192.41387919921874Q212.46094038085937,192.87827919921875,212.48364038085936,193.34507919921873Q212.50644038085937,193.81187919921877,212.50014038085936,194.27907919921876Q212.49374038085938,194.74637919921875,212.45834038085937,195.21237919921873Q212.42294038085936,195.67837919921874,212.35854038085938,196.14127919921873Q212.29424038085938,196.60407919921875,212.20114038085939,197.06207919921874Q212.10814038085937,197.52007919921874,211.98674038085937,197.97127919921877Q211.86544038085935,198.42257919921875,211.71624038085938,198.86547919921875Q211.56694038085936,199.30827919921876,211.3904403808594,199.74097919921877Q211.21394038085936,200.17377919921876,211.01084038085938,200.59457919921874Q210.80774038085937,201.01547919921876,210.5788403808594,201.42287919921876Q210.34994038085938,201.83037919921875,210.09614038085937,202.22277919921873Q209.84234038085935,202.61507919921877,209.56464038085937,202.99097919921877Q209.28684038085936,203.36677919921874,208.98624038085939,203.72457919921874Q208.68564038085935,204.08237919921874,208.36334038085937,204.42077919921877Q208.04104038085939,204.75917919921875,207.69824038085937,205.07687919921875Q207.3555403808594,205.39447919921875,206.99374038085938,205.69027919921876Q206.6318403808594,205.98597919921875,206.25234038085938,206.25857919921873Q205.87274038085937,206.53117919921874,205.4769403808594,206.77967919921875Q205.08114038085938,207.02817919921876,204.67064038085937,207.25157919921875Q204.26014038085935,207.47487919921875,203.8365403808594,207.67227919921874Q203.41304038085937,207.86957919921875,202.97794038085937,208.04027919921873Q202.5428403808594,208.21087919921877,202.09804038085937,208.35407919921875Q201.65314038085938,208.49727919921875,201.20024038085938,208.61247919921874Q200.74744038085936,208.72777919921873,200.28824038085938,208.81457919921877Q199.82904038085937,208.90137919921875,199.36534038085938,208.95947919921875Q198.90164038085936,209.01747919921877,198.43524038085937,209.04657919921874Q197.96884038085938,209.07567919921877,197.50144038085938,209.07567919921877L167.57844038085938,209.07567919921877Q167.11104038085938,209.07567919921877,166.64464038085939,209.04657919921874Q166.17824038085936,209.01747919921877,165.71454038085938,208.95947919921875Q165.2508403808594,208.90137919921875,164.79164038085938,208.81457919921877Q164.33244038085937,208.72777919921873,163.87964038085937,208.61247919921874Q163.42674038085937,208.49727919921875,162.98184038085938,208.35407919921875Q162.53704038085937,208.21087919921877,162.1019403808594,208.04027919921873Q161.6669403808594,207.86967919921875,161.24334038085937,207.67227919921874Q160.81974038085937,207.47487919921875,160.4092403808594,207.25157919921875Q159.99874038085937,207.02817919921876,159.60294038085937,206.77967919921875Q159.20714038085939,206.53127919921874,158.82754038085938,206.25857919921873Q158.44804038085937,205.98597919921875,158.08614038085938,205.69027919921876Q157.72434038085936,205.39447919921875,157.38164038085938,205.07687919921875Q157.03884038085937,204.75917919921875,156.71654038085939,204.42077919921877Q156.39424038085937,204.08237919921874,156.09364038085937,203.72457919921874Q155.79304038085937,203.36677919921874,155.51534038085939,202.99097919921877Q155.23754038085937,202.61507919921877,154.9837403808594,202.22277919921873Q154.72994038085938,201.83037919921875,154.50104038085937,201.42287919921876Q154.27214038085938,201.01547919921876,154.06904038085938,200.59457919921874Q153.86594038085937,200.17377919921876,153.68944038085937,199.74097919921877Q153.51294038085936,199.30827919921876,153.36364038085938,198.86547919921875Q153.21444038085937,198.42257919921875,153.09314038085938,197.97127919921877Q152.9717403808594,197.52007919921874,152.87864038085937,197.06207919921874Q152.78564038085938,196.60407919921875,152.72134038085937,196.14117919921875Q152.65694038085937,195.67837919921874,152.6215403808594,195.21237919921873Q152.58614038085938,194.74637919921875,152.57974038085936,194.27907919921876Q152.57344038085938,193.81177919921873,152.59624038085937,193.34507919921873Q152.61894038085939,192.87827919921875,152.67074038085937,192.41387919921874Q152.72254038085939,191.94937919921875,152.80314038085936,191.48907919921874Q152.88374038085936,191.02877919921875,152.99274038085937,190.57437919921875Q153.1018403808594,190.11997919921873,153.23904038085936,189.67317919921874Q153.37614038085937,189.22647919921874,153.54084038085938,188.78917919921875Q153.70554038085936,188.35177919921875,153.89714038085938,187.92557919921876L168.8587403808594,154.64307919921876Q169.07954038085938,154.15187919921874,169.33494038085936,153.67787919921875Q169.59044038085938,153.20377919921876,169.8792403808594,152.74927919921876Q170.16794038085936,152.29467919921876,170.48864038085938,151.86207919921875Q170.80924038085936,151.42937919921874,171.16004038085939,151.02087919921874Q171.51094038085938,150.61227919921876,171.89014038085938,150.22997919921875Q172.26934038085938,149.84767919921876,172.67504038085937,149.49347919921874Q173.08074038085937,149.13927919921875,173.51074038085937,148.81517919921876Q173.94074038085938,148.49097919921874,174.3929403808594,148.19847919921875Q174.84504038085936,147.90607919921874,175.31704038085937,147.64677919921874Q175.78904038085938,147.38737919921874,176.2783403808594,147.16257919921875Q176.76774038085938,146.93787919921874,177.27194038085938,146.74867919921874Q177.77614038085937,146.55957919921875,178.29264038085938,146.40707919921874Q178.80904038085936,146.25457919921874,179.33514038085937,146.13957919921876Q179.86124038085939,146.02447919921875,180.39424038085937,145.94747919921875Q180.92714038085938,145.87047919921875,181.46434038085937,145.83177919921874Q182.00144038085938,145.79317919921874,182.53994038085938,145.79317919921874Q183.07844038085938,145.79317919921874,183.6155403808594,145.83177919921874Q184.15274038085937,145.87047919921875,184.68564038085938,145.94747919921875Q185.21864038085937,146.02447919921875,185.74474038085938,146.13957919921876Q186.27084038085937,146.25457919921874,186.78724038085937,146.40707919921874Q187.30374038085938,146.55957919921875,187.80794038085938,146.74867919921874Q188.31214038085938,146.93787919921874,188.80154038085936,147.16267919921876Q189.29084038085938,147.38737919921874,189.76284038085936,147.64677919921874Q190.23484038085937,147.90607919921874,190.68694038085937,148.19847919921875Q191.13914038085937,148.49097919921874,191.56914038085938,148.81517919921876Q191.9991403808594,149.13927919921875,192.40484038085938,149.49347919921874Q192.81054038085938,149.84767919921876,193.18974038085938,150.22997919921875Q193.56894038085937,150.61227919921876,193.91984038085937,151.02087919921874Q194.2706403808594,151.42937919921874,194.59124038085938,151.86207919921875Q194.9119403808594,152.29467919921876,195.20064038085937,152.74927919921876Q195.48944038085938,153.20377919921876,195.74494038085936,153.67787919921875Q196.00034038085937,154.15187919921874,196.22114038085937,154.64307919921876L211.18274038085937,187.92557919921876Z" fill="#165DFF" fill-opacity="0.699999988079071"/></g><g transform="matrix(-0.9998477101325989,-0.017452405765652657,-0.017452405765652657,0.9998477101325989,297.4119136161595,2.595473778902033)"><path d="M233.948151953125,122.28466689453126Q234.218851953125,122.99126689453125,234.446351953125,123.71306689453125Q234.673851953125,124.43476689453125,234.857251953125,125.16896689453125Q235.04075195312498,125.90316689453125,235.179451953125,126.64706689453125Q235.31815195312498,127.39096689453125,235.411551953125,128.14196689453127Q235.50505195312502,128.89286689453127,235.552851953125,129.64816689453124Q235.60075195312498,130.40336689453125,235.602751953125,131.16016689453124Q235.604851953125,131.91686689453127,235.561151953125,132.67236689453125Q235.517551953125,133.42786689453123,235.428251953125,134.17926689453125Q235.33885195312502,134.93076689453125,235.204351953125,135.67546689453127Q235.069751953125,136.42016689453123,234.890351953125,137.15556689453126Q234.710951953125,137.89056689453125,234.487451953125,138.61356689453123Q234.263851953125,139.33656689453124,233.99705195312498,140.04456689453124Q233.730251953125,140.75256689453124,233.42105195312502,141.44356689453124Q233.11185195312498,142.13456689453125,232.761451953125,142.80456689453126Q232.411051953125,143.47556689453126,232.020751953125,144.12356689453125Q231.630351953125,144.77256689453125,231.201551953125,145.39556689453127Q230.772751953125,146.01956689453124,230.306951953125,146.61556689453124Q229.84125195312498,147.21256689453125,229.340251953125,147.77956689453126Q228.839251953125,148.34656689453124,228.304951953125,148.88256689453124Q227.770551953125,149.41856689453124,227.204751953125,149.92056689453125Q226.638951953125,150.42356689453123,226.043851953125,150.89056689453125Q225.448651953125,151.35756689453126,224.826351953125,151.78856689453124Q224.203951953125,152.21956689453125,223.556751953125,152.61156689453125Q222.909551953125,153.00356689453125,222.239751953125,153.35556689453125Q221.56995195312498,153.70756689453125,220.880151953125,154.01856689453126Q220.190251953125,154.32956689453124,219.48285195312502,154.59856689453125Q218.775451953125,154.86756689453125,218.053151953125,155.09356689453125Q217.330751953125,155.31856689453124,216.596051953125,155.49956689453126Q215.861351953125,155.68156689453124,215.11705195312499,155.81856689453124Q214.372751953125,155.95456689453124,213.621551953125,156.04656689453125Q212.870351953125,156.13756689453123,212.115051953125,156.18356689453125Q211.359651953125,156.22856689453124,210.602851953125,156.22856689453124L191.822351953125,156.22856689453124Q191.065551953125,156.22856689453124,190.310251953125,156.18356689453125Q189.554851953125,156.13756689453123,188.80365195312498,156.04656689453125Q188.052451953125,155.95456689453124,187.308151953125,155.81856689453124Q186.563851953125,155.68156689453124,185.829151953125,155.49956689453126Q185.094451953125,155.31856689453124,184.372151953125,155.09356689453125Q183.649751953125,154.86756689453125,182.942351953125,154.59856689453125Q182.234951953125,154.32956689453124,181.545151953125,154.01856689453126Q180.855251953125,153.70756689453125,180.185451953125,153.35556689453125Q179.515751953125,153.00356689453125,178.868451953125,152.61156689453125Q178.221251953125,152.21956689453125,177.598951953125,151.78856689453124Q176.976551953125,151.35756689453126,176.381451953125,150.89056689453125Q175.786251953125,150.42356689453123,175.220451953125,149.92056689453125Q174.654651953125,149.41856689453124,174.120351953125,148.88256689453124Q173.585951953125,148.34656689453124,173.084951953125,147.77956689453126Q172.584051953125,147.21256689453125,172.118251953125,146.61556689453124Q171.652551953125,146.01956689453124,171.223651953125,145.39556689453127Q170.794851953125,144.77256689453125,170.404551953125,144.12356689453125Q170.014251953125,143.47556689453126,169.663851953125,142.80456689453126Q169.313451953125,142.13456689453125,169.004251953125,141.44356689453124Q168.695051953125,140.75256689453124,168.428151953125,140.04456689453124Q168.161351953125,139.33656689453124,167.937851953125,138.61356689453123Q167.714351953125,137.89056689453125,167.534951953125,137.15556689453126Q167.355551953125,136.42016689453123,167.220951953125,135.67546689453127Q167.086351953125,134.93076689453125,166.997051953125,134.17926689453125Q166.907751953125,133.42786689453123,166.864051953125,132.67236689453125Q166.820351953125,131.91686689453127,166.822451953125,131.16016689453124Q166.824551953125,130.40336689453125,166.872351953125,129.64816689453124Q166.920251953125,128.89286689453127,167.013651953125,128.14196689453127Q167.107151953125,127.39096689453125,167.245851953125,126.64706689453125Q167.384551953125,125.90316689453125,167.567951953125,125.16896689453125Q167.751351953125,124.43476689453125,167.978851953125,123.71306689453125Q168.206351953125,122.99136689453125,168.477151953125,122.28466689453126L177.867451953125,97.77556689453125Q178.204351953125,96.89616689453125,178.606551953125,96.04456689453124Q179.008651953125,95.19296689453125,179.473751953125,94.37396689453125Q179.938851953125,93.55506689453125,180.464251953125,92.77346689453125Q180.989651953125,91.99186689453126,181.572351953125,91.25196689453125Q182.155051953125,90.51206689453124,182.79175195312502,89.81816689453126Q183.428451953125,89.12416689453124,184.115551953125,88.48016689453125Q184.802651953125,87.83606689453126,185.536351953125,87.24556689453125Q186.269951953125,86.65496689453124,187.04595195312498,86.12126689453126Q187.821851953125,85.58766689453125,188.63585195312498,85.11386689453124Q189.449751953125,84.64006689453126,190.297051953125,84.22886689453125Q191.144251953125,83.81766689453124,192.020051953125,83.47136689453126Q192.895951953125,83.12506689453124,193.795251953125,82.84566689453125Q194.694651953125,82.56626689453125,195.612551953125,82.35526689453124Q196.530351953125,82.14426689453126,197.461451953125,82.00296689453126Q198.392551953125,81.86166689453125,199.331751953125,81.79086689453125Q200.270851953125,81.71996689453124,201.212651953125,81.71996689453124Q202.154451953125,81.71996689453124,203.093551953125,81.79086689453125Q204.032651953125,81.86166689453125,204.96375195312498,82.00296689453126Q205.894851953125,82.14426689453126,206.812751953125,82.35526689453124Q207.730551953125,82.56626689453125,208.629951953125,82.84566689453125Q209.529351953125,83.12506689453124,210.405151953125,83.47136689453126Q211.280951953125,83.81766689453124,212.12825195312502,84.22886689453125Q212.975451953125,84.64006689453126,213.789451953125,85.11386689453124Q214.603351953125,85.58766689453125,215.379351953125,86.12126689453126Q216.155251953125,86.65496689453124,216.888951953125,87.24556689453125Q217.622551953125,87.83606689453126,218.309651953125,88.48016689453125Q218.996751953125,89.12426689453125,219.63345195312502,89.81816689453126Q220.270251953125,90.51206689453124,220.852951953125,91.25196689453125Q221.435651953125,91.99186689453126,221.960951953125,92.77346689453125Q222.486351953125,93.55506689453125,222.951451953125,94.37406689453125Q223.416551953125,95.19296689453125,223.818751953125,96.04456689453124Q224.22085195312502,96.89616689453125,224.557851953125,97.77556689453125L233.948151953125,122.28466689453126Z" fill="#165DFF" fill-opacity="1"/></g><g filter="url(#master_svg1_28_183)"></g><g transform="matrix(-1,0,0,1,262,0)"><path d="M259.96000000000004,69.001Q260.36699999999996,69.883,260.71799999999996,70.788Q261.06899999999996,71.693,261.363,72.618Q261.65700000000004,73.543,261.892,74.485Q262.127,75.427,262.303,76.381Q262.47900000000004,77.336,262.595,78.3Q262.711,79.264,262.76599999999996,80.233Q262.822,81.202,262.81600000000003,82.173Q262.81100000000004,83.144,262.745,84.112Q262.679,85.081,262.552,86.043Q262.425,87.005,262.23900000000003,87.958Q262.052,88.911,261.80600000000004,89.85Q261.56100000000004,90.789,261.257,91.71100000000001Q260.952,92.63300000000001,260.591,93.53399999999999Q260.23,94.435,259.813,95.31200000000001Q259.39599999999996,96.18799999999999,258.926,97.037Q258.455,97.886,257.932,98.70400000000001Q257.408,99.52199999999999,256.835,100.305Q256.262,101.089,255.64100000000002,101.83500000000001Q255.01999999999998,102.58099999999999,254.353,103.286Q253.687,103.99199999999999,252.977,104.655Q252.268,105.31700000000001,251.518,105.934Q250.769,106.55099999999999,249.982,107.12Q249.196,107.689,248.375,108.207Q247.554,108.726,246.703,109.19200000000001Q245.851,109.65799999999999,244.97199999999998,110.07Q244.09300000000002,110.482,243.19,110.838Q242.287,111.19399999999999,241.363,111.493Q240.44,111.792,239.499,112.03299999999999Q238.559,112.274,237.60500000000002,112.45500000000001Q236.652,112.636,235.688,112.757Q234.725,112.87899999999999,233.756,112.939Q232.788,113,231.817,113L190.1832,113Q189.2124,113,188.24360000000001,112.939Q187.2747,112.87899999999999,186.3116,112.757Q185.3484,112.636,184.3947,112.45500000000001Q183.4411,112.274,182.5006,112.03299999999999Q181.5601,111.792,180.6365,111.493Q179.713,111.19399999999999,178.8099,110.838Q177.9068,110.482,177.0278,110.07Q176.1488,109.65799999999999,175.2973,109.19200000000001Q174.4458,108.726,173.6251,108.207Q172.8044,107.689,172.0178,107.12Q171.2312,106.55099999999999,170.4817,105.934Q169.7322,105.31700000000001,169.0228,104.655Q168.3133,103.99199999999999,167.64679999999998,103.286Q166.9802,102.58099999999999,166.3591,101.83500000000001Q165.7379,101.089,165.1647,100.305Q164.5915,99.52199999999999,164.0684,98.70400000000001Q163.5454,97.886,163.0745,97.037Q162.6036,96.18799999999999,162.1867,95.31200000000001Q161.7699,94.435,161.4087,93.53399999999999Q161.0475,92.63300000000001,160.7434,91.71100000000001Q160.4394,90.789,160.1935,89.85Q159.9477,88.911,159.7611,87.958Q159.5746,87.005,159.448,86.043Q159.3214,85.081,159.2552,84.112Q159.1891,83.144,159.1837,82.173Q159.1783,81.202,159.2336,80.233Q159.2889,79.264,159.4048,78.3Q159.5207,77.336,159.6966,76.381Q159.8726,75.427,160.1079,74.485Q160.3432,73.543,160.637,72.618Q160.9308,71.693,161.2819,70.788Q161.6331,69.883,162.0401,69.001L182.8569,23.931600000000003Q183.3194,22.9302,183.8519,21.9643Q184.3844,20.9983,184.9842,20.0726Q185.5841,19.147,186.2481,18.2663Q186.91219999999998,17.385599999999997,187.6372,16.554299999999998Q188.3622,15.723100000000002,189.1444,14.9454Q189.92669999999998,14.1678,190.7622,13.447699999999998Q191.5977,12.727600000000002,192.4823,12.068800000000003Q193.3669,11.4099,194.2961,10.8155Q195.2253,10.221200000000003,196.1944,9.694400000000002Q197.1635,9.1676,198.16750000000002,8.710999999999999Q199.1716,8.254399999999997,200.2056,7.8703999999999965Q201.23950000000002,7.4863,202.2982,7.176699999999997Q203.3569,6.867100000000001,204.4348,6.633499999999998Q205.5128,6.399900000000002,206.60469999999998,6.243499999999997Q207.6966,6.0870999999999995,208.79680000000002,6.0086999999999975Q209.897,5.930300000000003,211,5.930300000000003Q212.103,5.930300000000003,213.20319999999998,6.0086999999999975Q214.30349999999999,6.0870999999999995,215.39530000000002,6.243499999999997Q216.4872,6.399900000000002,217.5652,6.633400000000002Q218.6431,6.866999999999997,219.7018,7.176699999999997Q220.76049999999998,7.4863,221.7944,7.8703999999999965Q222.8284,8.254399999999997,223.83249999999998,8.710999999999999Q224.8365,9.1676,225.8056,9.694400000000002Q226.7747,10.221200000000003,227.7039,10.8155Q228.6331,11.4099,229.5177,12.0687Q230.4023,12.727600000000002,231.238,13.447699999999998Q232.07299999999998,14.1678,232.856,14.9454Q233.638,15.723100000000002,234.363,16.554299999999998Q235.088,17.385599999999997,235.752,18.2663Q236.416,19.147,237.01600000000002,20.0726Q237.61599999999999,20.9983,238.148,21.9643Q238.68099999999998,22.9302,239.143,23.931600000000003L259.96000000000004,69.001Z" fill="#3491FA" fill-opacity="1"/></g></g></svg>